<svg xmlns="http://www.w3.org/2000/svg" width="237.438" height="286.51" viewBox="0 0 237.438 286.51">
  <g id="Group_6" data-name="Group 6" transform="translate(0 0)">
    <path id="Path_24" data-name="Path 24" d="M670.588,49.589a4.5,4.5,0,0,0-3.774-2.119H438.574a4.5,4.5,0,0,0-3.774,2.119,5.238,5.238,0,0,0-.526,4.548l54.233,157.022a4.612,4.612,0,0,0,4.3,3.217H612.6a4.612,4.612,0,0,0,4.3-3.217L671.129,54.137a5.29,5.29,0,0,0-.526-4.548h0Zm-61.194,154.9h-113.4L445.179,57.37H660.208Z" transform="translate(-433.98 -47.47)" fill="#f3f0eb"/>
    <path id="Path_25" data-name="Path 25" d="M487.214,77.37h27.008a4.964,4.964,0,0,0,0-9.9H487.214a4.964,4.964,0,0,0,0,9.9Z" transform="translate(-407.381 -36.533)" fill="#f3f0eb"/>
    <path id="Path_26" data-name="Path 26" d="M502.74,156.462c-7.394,0-13.411-6.481-13.411-14.432a4.607,4.607,0,1,0-9.188,0c0,13.411,10.132,24.332,22.6,24.332s22.6-10.921,22.6-24.332V127.6h4.207v14.432c0,13.411,10.132,24.332,22.6,24.332a21.655,21.655,0,0,0,16.1-7.27,25.2,25.2,0,0,0,6.5-17.464c-.2-13.21-10.611-23.945-23.234-23.945H538.75V103c0-7.966,6.017-14.432,13.4-14.432S565.557,95.051,565.557,103a4.607,4.607,0,1,0,9.188,0c0-13.411-10.132-24.332-22.6-24.332s-22.6,10.921-22.6,24.332v14.68h-4.208V103.25c0-13.427-10.132-24.332-22.6-24.332-9.823,0-18.655,6.853-21.486,16.66a26.136,26.136,0,0,0,3.279,22.089,22.21,22.21,0,0,0,18.207,9.915h13.411v14.432c0,7.966-6.017,14.432-13.411,14.432h0Zm36-28.864H551.5a14.29,14.29,0,0,1,14.046,14.2,14.958,14.958,0,0,1-3.852,10.364,12.85,12.85,0,0,1-9.56,4.316c-7.394,0-13.4-6.481-13.4-14.432V127.613Zm-36-9.9a13,13,0,0,1-10.8-5.894,15.717,15.717,0,0,1-1.918-13.272,13.381,13.381,0,0,1,12.715-9.7c7.394,0,13.411,6.481,13.411,14.432V117.7H502.74Z" transform="translate(-408.738 -30.408)" fill="#f3f0eb"/>
    <g id="Group_5" data-name="Group 5" transform="translate(42.306 198.663)">
      <path id="Path_27" data-name="Path 27" d="M478.5,232.533c0,3.341-1.454,5.182-4.115,5.182s-4.161-1.841-4.161-5.182V218.72h-2.4v13.829c0,4.8,2.521,7.781,6.559,7.781s6.512-2.908,6.512-7.781V218.72h-2.4Z" transform="translate(-457.775 -152.483)" fill="#f3f0eb"/>
      <path id="Path_28" data-name="Path 28" d="M486.009,229.716,479.759,218.3h-1.47v21.393h2.4V224.905l4.873,8.91h.913l4.842-8.894v14.773h2.4V218.3h-1.47Z" transform="translate(-452.055 -152.713)" fill="#f3f0eb"/>
      <path id="Path_29" data-name="Path 29" d="M506.967,229.108c0-6.574-3.465-11-8.631-11s-8.585,4.424-8.585,11,3.45,10.967,8.585,10.967a7.722,7.722,0,0,0,5.2-1.856l1.361,1.624h2.382v-.975l-2.1-2.583a13.371,13.371,0,0,0,1.81-7.193h0Zm-8.631,8.369c-3.728,0-6.141-3.279-6.141-8.369s2.475-8.384,6.172-8.384,6.172,3.217,6.172,8.384-2.367,8.369-6.187,8.369h0Z" transform="translate(-445.788 -152.817)" fill="#f3f0eb"/>
      <path id="Path_30" data-name="Path 30" d="M519.4,233c-.727,2.97-2.506,4.486-5.275,4.486-3.9,0-6.141-3.063-6.141-8.384s2.336-8.446,6.11-8.446a5.1,5.1,0,0,1,5.2,4.115l.124.48h2.413l-.17-.789c-.882-4.006-3.635-6.311-7.533-6.311-5.12,0-8.554,4.409-8.554,10.967s3.279,10.967,8.554,10.967c2.939,0,6.713-1.779,7.641-6.775l.139-.773h-2.4l-.108.48Z" transform="translate(-437.137 -152.795)" fill="#f3f0eb"/>
      <path id="Path_31" data-name="Path 31" d="M525.325,218.13c-5.136,0-8.585,4.409-8.585,10.967s3.449,10.967,8.585,10.967,8.631-4.3,8.631-10.967-3.465-10.967-8.631-10.967Zm0,19.336c-3.728,0-6.141-3.279-6.141-8.369s2.475-8.369,6.172-8.369,6.172,3.2,6.172,8.369-2.367,8.369-6.187,8.369h0Z" transform="translate(-431.028 -152.806)" fill="#f3f0eb"/>
      <path id="Path_32" data-name="Path 32" d="M529.36,239.682H531.8v-9.7h7.44v-2.552H531.8v-6.574h8.044V218.32H529.36Z" transform="translate(-424.127 -152.702)" fill="#f3f0eb"/>
      <path id="Path_33" data-name="Path 33" d="M537.46,239.682H539.9v-9.7h7.425v-2.552H539.9v-6.574h8.044V218.32H537.46Z" transform="translate(-419.697 -152.702)" fill="#f3f0eb"/>
      <path id="Path_34" data-name="Path 34" d="M547.948,229.921h7.641v-2.537h-7.641v-6.528H555.9V218.32H545.55v21.362h10.457v-2.614h-8.059Z" transform="translate(-415.273 -152.702)" fill="#f3f0eb"/>
      <path id="Path_35" data-name="Path 35" d="M556.3,229.921h7.641v-2.537H556.3v-6.528h7.951V218.32H553.9v21.362h10.457v-2.614H556.3Z" transform="translate(-410.707 -152.702)" fill="#f3f0eb"/>
      <path id="Path_36" data-name="Path 36" d="M475.092,188.043l3.573,2.274,2.537-3.542-3.743-2.475-1.655,2.351-3.527-2.351-2.537,3.651,3.743,2.367Z" transform="translate(-456.731 -171.306)" fill="#f3f0eb"/>
      <path id="Path_37" data-name="Path 37" d="M500.174,186.14a15.74,15.74,0,0,1-1.7,1.284c-.634.418-1.361.882-2.212,1.392l.232.789a18.644,18.644,0,0,0,2.521-.7,8.441,8.441,0,0,0,2.1-1.083A7.976,7.976,0,0,0,502.8,186.2a9.477,9.477,0,0,0,1.268-2.367l.325.124a4.758,4.758,0,0,1,.681.418,3.343,3.343,0,0,1,.588.541h.139l.464-1.934a1.3,1.3,0,0,0-.387-.6,1.9,1.9,0,0,0-.619-.418l-.588-.186c.062-.217.139-.572.232-1.083a7.8,7.8,0,0,0,.155-1.361,8.646,8.646,0,0,0-.093-1.284,3.806,3.806,0,0,0-.309-1.1,2.2,2.2,0,0,0-.557-.758,1.308,1.308,0,0,0-.835-.294,2.225,2.225,0,0,0-1.021.371,5.887,5.887,0,0,0-1.237.99,6.626,6.626,0,0,0-1.052,1.439,3.629,3.629,0,0,0-.449,1.748,2.039,2.039,0,0,0,.464,1.315,3.152,3.152,0,0,0,1.237.928c.278.124.51.232.727.325a6.705,6.705,0,0,0,.665.217,13.939,13.939,0,0,1-1.114,1.562,11.051,11.051,0,0,1-1.346,1.346h0Zm2.367-5.167a2.347,2.347,0,0,1-.557-.263,2.783,2.783,0,0,1-.866-.82,1.453,1.453,0,0,1-.217-.712.872.872,0,0,1,.155-.418,2.765,2.765,0,0,1,.418-.449,2.957,2.957,0,0,1,.526-.371,1.224,1.224,0,0,1,.541-.139c.278,0,.479.232.619.681a5.1,5.1,0,0,1,.2,1.5,3.157,3.157,0,0,1-.062.588c-.046.247-.077.433-.124.588-.2-.062-.418-.139-.65-.2h0Z" transform="translate(-442.228 -175.9)" fill="#f3f0eb"/>
      <path id="Path_38" data-name="Path 38" d="M533.1,205.546c.959-.17,1.732-.309,2.336-.449l1.918-4.672q-.3.046-1.067.139c-.526.077-1.129.155-1.794.232-.681.093-1.392.186-2.135.294s-1.439.2-2.088.278c-.65.093-1.191.155-1.655.2a7.171,7.171,0,0,1-.82.077,6,6,0,0,1-1.686-.773,10.827,10.827,0,0,1-1.9-1.562,13.248,13.248,0,0,1-1.686-2.166,8.654,8.654,0,0,1-1.052-2.552,7.239,7.239,0,0,1,1.7-1.129,11.615,11.615,0,0,1,2.011-.742c.7-.186,1.361-.325,2.011-.433a12.3,12.3,0,0,1,1.7-.139,5.245,5.245,0,0,1,2.088.418,6.449,6.449,0,0,1,1.825,1.207l.464-.356c-.294-.51-.65-1.052-1.067-1.655a12.122,12.122,0,0,0-1.454-1.64,8.053,8.053,0,0,0-1.841-1.253,4.91,4.91,0,0,0-2.227-.51,5.048,5.048,0,0,0-2.846.975,11.505,11.505,0,0,0-2.583,2.413,14.037,14.037,0,0,0-1.856,3.094,7.867,7.867,0,0,0-.712,3.016,5.381,5.381,0,0,0,.17,1.315,11.284,11.284,0,0,0,.975,2.382q.3.534.557.928a8.3,8.3,0,0,1-1.361.2c-.541.062-1.145.093-1.779.124s-1.3.062-1.98.062h-2.985a4.732,4.732,0,0,1-1.686-.248,3.455,3.455,0,0,1-1.036-.6,8.717,8.717,0,0,1-1.98-3.217,20.776,20.776,0,0,1-.944-4.269,3.03,3.03,0,0,0-.51-1.377,1.365,1.365,0,0,0-1.191-.619,6.385,6.385,0,0,0-4.5,1.624,12.084,12.084,0,0,0-2.893,4.409c-.247.619-.48,1.145-.665,1.593s-.356.82-.479,1.114a2.861,2.861,0,0,1-.959,1.176,2.284,2.284,0,0,1-1.315.449h-6.28a16.382,16.382,0,0,0-.758-3.7,18.7,18.7,0,0,0-1.516-3.419,10.777,10.777,0,0,0-2-2.506,3.435,3.435,0,0,0-2.258-.99,3.728,3.728,0,0,0-2.119.773,7.927,7.927,0,0,0-2,2.2,13.416,13.416,0,0,0-1.47,3.326,14.49,14.49,0,0,0-.572,4.207,3.717,3.717,0,0,0,1.33,3.125,8.459,8.459,0,0,0,4.177,1.377q.534.07,1.207.093c.449.015.9.046,1.361.062.449.015.882.031,1.284.031h1.021a5.061,5.061,0,0,1-.046.789c-.031.309-.062.65-.108.975-.046.34-.077.665-.124.99-.046.309-.077.572-.093.758a18.67,18.67,0,0,1-2.274,1.748,22.118,22.118,0,0,1-3.14,1.686,23.477,23.477,0,0,1-3.774,1.268,17.155,17.155,0,0,1-4.177.51,9.381,9.381,0,0,1-2.862-.449,7.478,7.478,0,0,1-2.49-1.346,6.611,6.611,0,0,1-1.763-2.243,6.93,6.93,0,0,1-.665-3.125,13.777,13.777,0,0,1,.186-2.3,19.382,19.382,0,0,1,.464-2.135,21.589,21.589,0,0,1,.681-2.073c.263-.7.541-1.423.835-2.15l-.882-.387c-.449.789-.913,1.624-1.377,2.521a26.273,26.273,0,0,0-1.284,2.893,22.544,22.544,0,0,0-.944,3.279,17.686,17.686,0,0,0-.371,3.682,11.186,11.186,0,0,0,.464,3.187,7.06,7.06,0,0,0,1.547,2.784,7.663,7.663,0,0,0,2.924,1.965,12.4,12.4,0,0,0,4.61.742,20.926,20.926,0,0,0,5.027-.557,19.818,19.818,0,0,0,7.146-3.295c.928-.681,1.748-1.346,2.506-1.98.51-1.268.959-2.537,1.361-3.79a21.643,21.643,0,0,0,.82-3.883h4.238a6.238,6.238,0,0,0,1.361-.139,3.706,3.706,0,0,0,1.222-.541,5.537,5.537,0,0,0,1.191-1.1,13.408,13.408,0,0,0,1.237-1.81c.681.634,1.392,1.237,2.1,1.81a26.645,26.645,0,0,0,2.243,1.609,23.533,23.533,0,0,0,5.368,2.521l2.011-3.836a7.933,7.933,0,0,0,.8.727,3.722,3.722,0,0,0,.742.464,2.644,2.644,0,0,0,.882.232,8.457,8.457,0,0,0,1.16.062h1.083c.6,0,1.3,0,2.088-.015.789,0,1.593-.031,2.444-.062s1.671-.077,2.506-.124q1.23-.093,2.274-.232c1.16-.17,2.367-.34,3.62-.526s2.459-.356,3.6-.541,2.2-.356,3.171-.526h0Zm-49.066-2.784c-.34,0-.681,0-1.052-.015-.356,0-.712-.015-1.036-.031-.325,0-.572-.031-.758-.046a7.716,7.716,0,0,1-2.753-.851,2.5,2.5,0,0,1-1.191-1.361,4.586,4.586,0,0,1,.34-.851,6.164,6.164,0,0,1,.619-.99,3.812,3.812,0,0,1,.851-.8,1.852,1.852,0,0,1,1.052-.34,2.427,2.427,0,0,1,1.361.48,6.67,6.67,0,0,1,1.361,1.237,9.809,9.809,0,0,1,1.191,1.7,9.559,9.559,0,0,1,.82,1.887h-.82Zm23.3,2.32a11.678,11.678,0,0,1-2.119-.913,19.5,19.5,0,0,1-2.135-1.33c-.7-.495-1.361-1.021-2-1.562a16.777,16.777,0,0,1-1.671-1.624,3.147,3.147,0,0,1,.82-1.423,3.54,3.54,0,0,1,1.315-.835,6.581,6.581,0,0,1,1.624-.418,13.093,13.093,0,0,1,1.748-.108c.046.557.108,1.176.2,1.856a13.575,13.575,0,0,0,.464,2.1,18.256,18.256,0,0,0,.758,2.119,9.244,9.244,0,0,0,1.129,1.887l-.155.247Z" transform="translate(-461.33 -169.086)" fill="#f3f0eb"/>
      <path id="Path_39" data-name="Path 39" d="M519.13,204.848a3.834,3.834,0,0,0,.9,2.753,3.763,3.763,0,0,0,2.846.959,17.5,17.5,0,0,0,2.815-.217,14.334,14.334,0,0,0,2.3-.572,10.742,10.742,0,0,0,1.779-.773,6.948,6.948,0,0,0,1.222-.866c.325-.712.65-1.454.959-2.212a12.568,12.568,0,0,0,.7-2.212,9.357,9.357,0,0,0,.294-2.32,12.033,12.033,0,0,0-.2-2.3,5.347,5.347,0,0,0-.65-1.64,5.5,5.5,0,0,0-1.145-1.268c-.464-.387-1.036-.789-1.7-1.237-.448-.294-.959-.619-1.5-.975-.557-.356-1.16-.758-1.825-1.222a1.925,1.925,0,0,1-.974-1.748V188.7a1.313,1.313,0,0,1,.062-.371l-.681-.418c-.232.294-.51.681-.835,1.145s-.634.944-.913,1.439-.526.959-.727,1.392a2.582,2.582,0,0,0-.294.975,2.72,2.72,0,0,0,.077.758,1.559,1.559,0,0,0,.4.665c-.356.712-.7,1.485-1.052,2.3-.34.82-.65,1.671-.928,2.568a23.3,23.3,0,0,0-.665,2.769,16.475,16.475,0,0,0-.247,2.893h0Zm2.3-5.275a13.578,13.578,0,0,1,.665-1.717,16.032,16.032,0,0,1,.758-1.47c.247-.433.448-.758.588-.975a3.273,3.273,0,0,0,.6.449c.309.186.681.418,1.1.665.526.309,1.129.665,1.763,1.052a15.682,15.682,0,0,1,1.81,1.268,8.79,8.79,0,0,1,1.408,1.439,2.61,2.61,0,0,1,.557,1.562c0,.217-.2.418-.588.6a8.608,8.608,0,0,1-1.547.51q-.951.209-2.181.371a21.988,21.988,0,0,1-2.49.139,3.752,3.752,0,0,1-1.377-.2,2.032,2.032,0,0,1-.82-.526,1.769,1.769,0,0,1-.418-.712,2.781,2.781,0,0,1-.124-.773,5.73,5.73,0,0,1,.278-1.686h0Z" transform="translate(-429.721 -169.332)" fill="#f3f0eb"/>
      <path id="Path_40" data-name="Path 40" d="M524.918,184.709l3.558,2.274,2.537-3.558-3.743-2.475-1.655,2.351-3.527-2.351L519.55,184.6l3.743,2.382Z" transform="translate(-429.492 -173.138)" fill="#f3f0eb"/>
      <path id="Path_41" data-name="Path 41" d="M587.058,190.29a11.369,11.369,0,0,0-1.934-2.955,3.207,3.207,0,0,0-2.351-1.176,4.274,4.274,0,0,0-2.537.944,9.918,9.918,0,0,0-2.351,2.506,14.055,14.055,0,0,0-1.733,3.589,13.107,13.107,0,0,0-.681,4.161,2.238,2.238,0,0,0,.588,1.578,4.259,4.259,0,0,0,1.5,1.036,7.954,7.954,0,0,0,1.98.572,11.98,11.98,0,0,0,2.042.17,2.059,2.059,0,0,0,1.067-.294,4.777,4.777,0,0,0,.99-.727,6.992,6.992,0,0,0,.851-.944c.247-.34.464-.65.65-.944h.588a15.087,15.087,0,0,1,.418,1.9,13.181,13.181,0,0,1,.17,2.135,9.842,9.842,0,0,1-.047,1.1c-.031.433-.077.835-.139,1.191H568.758a5.271,5.271,0,0,0-2.382.541,6.159,6.159,0,0,0-1.965,1.516,7.385,7.385,0,0,0-1.33,2.382,9.367,9.367,0,0,0-.48,3.109,9.012,9.012,0,0,0,.325,2.537,14.793,14.793,0,0,0,.557,1.64l-.325.155a5.924,5.924,0,0,1-1.237-.851,8.9,8.9,0,0,1-1.222-1.377,7.536,7.536,0,0,1-.944-1.825,6.359,6.359,0,0,1-.371-2.2,12.794,12.794,0,0,1,.278-2.583,12.389,12.389,0,0,1,.773-2.46c.155-.139.325-.325.526-.541a4.312,4.312,0,0,0,.448-.6,13.67,13.67,0,0,0,1.454-2.893,28.1,28.1,0,0,0,1.1-4.022l-1.5-.572a18.858,18.858,0,0,1-1.33,3.078,10.025,10.025,0,0,1-1.964,2.552,8.788,8.788,0,0,1-2.784,1.748,10.1,10.1,0,0,1-3.774.65h-4.981a21.2,21.2,0,0,0-.588-3.728,19.038,19.038,0,0,0-1.191-3.434,9.189,9.189,0,0,0-1.686-2.521,2.965,2.965,0,0,0-2.119-.975,3.865,3.865,0,0,0-2.181.773,7.508,7.508,0,0,0-2.011,2.15,12.459,12.459,0,0,0-1.47,3.295,14.49,14.49,0,0,0-.572,4.207,3.529,3.529,0,0,0,.433,1.748A4.376,4.376,0,0,0,537.388,207a5.859,5.859,0,0,0,1.64.928,7.9,7.9,0,0,0,1.887.5c.356.046.727.077,1.129.108.387.031.773.062,1.16.077s.742.031,1.083.031h.9a6.261,6.261,0,0,1-.789,2.135,13.329,13.329,0,0,1-1.64,2.32,19.428,19.428,0,0,1-2.274,2.227,18.839,18.839,0,0,1-2.692,1.9,14.893,14.893,0,0,1-2.924,1.315,9.336,9.336,0,0,1-2.908.5,8.972,8.972,0,0,1-1.145-.062,10.632,10.632,0,0,1-1.114-.2q-.58-.139-1.3-.371c-.464-.155-1.021-.325-1.655-.541l-.356.944c1.1.588,2.119,1.1,3.047,1.516s1.794.758,2.6,1.036a16.7,16.7,0,0,0,2.243.588,11.615,11.615,0,0,0,2.026.186,7.294,7.294,0,0,0,3.914-1.145,12.535,12.535,0,0,0,3.279-3.016,18.861,18.861,0,0,0,2.444-4.285,23.5,23.5,0,0,0,1.439-4.95h5.244a8.94,8.94,0,0,0,1.516-.108,5.227,5.227,0,0,0,1.268-.387,7.019,7.019,0,0,0,1.207-.712c.4-.294.851-.65,1.346-1.083l.294.217a14.029,14.029,0,0,0-.4,2.227,25.22,25.22,0,0,0-.124,2.6,10.174,10.174,0,0,0,.448,2.769,14.811,14.811,0,0,0,1.33,3.109,17.277,17.277,0,0,0,2.212,3.047,14.969,14.969,0,0,0,3.094,2.614h.418l1.825-5.321a17.291,17.291,0,0,1-1.949-3.032,7.893,7.893,0,0,1-.758-3.573,1.662,1.662,0,0,1,.433-1.191,2.845,2.845,0,0,1,1.083-.727,5.353,5.353,0,0,1,1.423-.371,12.292,12.292,0,0,1,1.469-.093h18.005q.6-2.436,1.021-4.13c.263-1.129.464-2.073.619-2.877.155-.789.247-1.47.309-2a13.517,13.517,0,0,0,.093-1.531,18.37,18.37,0,0,0-.479-4.053,18.15,18.15,0,0,0-1.3-3.914h0Zm-2.862,6.141a5.948,5.948,0,0,1-1.237.139,9.238,9.238,0,0,1-1.593-.139,8.869,8.869,0,0,1-1.5-.387,6.252,6.252,0,0,1-1.253-.572,2.634,2.634,0,0,1-.835-.742,4.972,4.972,0,0,1,.356-1.1,4.717,4.717,0,0,1,.7-1.16,3.893,3.893,0,0,1,.974-.913,2.065,2.065,0,0,1,1.191-.387,2.131,2.131,0,0,1,1.16.418,5.784,5.784,0,0,1,1.222,1.114,10.107,10.107,0,0,1,1.083,1.578,8.362,8.362,0,0,1,.789,1.841,9.463,9.463,0,0,1-1.067.309h0Zm-40.3,7.518c-.309,0-.634-.015-.959-.031-.325,0-.634-.031-.928-.046s-.526-.046-.712-.062a6.179,6.179,0,0,1-2.46-.789,2.509,2.509,0,0,1-1.021-1.361,2.43,2.43,0,0,1,.2-.851,5.143,5.143,0,0,1,.572-1.067,3.8,3.8,0,0,1,.9-.9,2.017,2.017,0,0,1,1.176-.387,1.8,1.8,0,0,1,1.176.51,6.453,6.453,0,0,1,1.114,1.315,12.926,12.926,0,0,1,.974,1.779,17.409,17.409,0,0,1,.742,1.918c-.217,0-.479,0-.789-.015h0Z" transform="translate(-425.751 -170.289)" fill="#f3f0eb"/>
      <path id="Path_42" data-name="Path 42" d="M564.048,183.943l3.558,2.274,2.537-3.558L566.4,180.2l-1.655,2.336-3.527-2.336-2.537,3.635,3.743,2.382Z" transform="translate(-408.093 -173.548)" fill="#f3f0eb"/>
    </g>
  </g>
</svg>
